<svg width="21" height="21" viewBox="0 0 21 21" fill="none" xmlns="http://www.w3.org/2000/svg">
<path d="M2.04536 3.42857C2.04536 2.63839 2.68375 2 3.47393 2V6.28571C3.47393 7.07589 4.11232 7.71429 4.9025 7.71429H13.4739C14.2641 7.71429 14.9025 7.07589 14.9025 6.28571V2.08036C15.1034 2.15179 15.2909 2.26786 15.4427 2.41964L18.7686 5.74554C19.0364 6.01339 19.1882 6.375 19.1882 6.75446V17.7143C19.1882 18.5045 18.5498 19.1429 17.7596 19.1429H3.47393C2.68375 19.1429 2.04536 18.5045 2.04536 17.7143V3.42857ZM4.9025 2H13.4739V6.28571H4.9025V2ZM0.616784 3.42857V17.7143C0.616784 19.2902 1.89803 20.5714 3.47393 20.5714H17.7596C19.3355 20.5714 20.6168 19.2902 20.6168 17.7143V6.75446C20.6168 5.99554 20.3177 5.26786 19.782 4.73214L16.4516 1.40625C15.9159 0.870535 15.1882 0.571428 14.4293 0.571428H3.47393C1.89803 0.571428 0.616784 1.85268 0.616784 3.42857ZM12.7596 13.4286C12.7596 13.71 12.7042 13.9886 12.5965 14.2486C12.4888 14.5086 12.331 14.7448 12.132 14.9438C11.933 15.1428 11.6968 15.3006 11.4368 15.4083C11.1768 15.516 10.8982 15.5714 10.6168 15.5714C10.3354 15.5714 10.0567 15.516 9.79675 15.4083C9.53677 15.3006 9.30054 15.1428 9.10155 14.9438C8.90257 14.7448 8.74473 14.5086 8.63704 14.2486C8.52935 13.9886 8.47393 13.71 8.47393 13.4286C8.47393 13.1472 8.52935 12.8685 8.63704 12.6085C8.74473 12.3486 8.90257 12.1123 9.10155 11.9133C9.30054 11.7144 9.53677 11.5565 9.79675 11.4488C10.0567 11.3411 10.3354 11.2857 10.6168 11.2857C10.8982 11.2857 11.1768 11.3411 11.4368 11.4488C11.6968 11.5565 11.933 11.7144 12.132 11.9133C12.331 12.1123 12.4888 12.3486 12.5965 12.6085C12.7042 12.8685 12.7596 13.1472 12.7596 13.4286ZM10.6168 9.85714C9.66958 9.85714 8.76118 10.2334 8.0914 10.9032C7.42163 11.573 7.04535 12.4814 7.04535 13.4286C7.04535 14.3758 7.42163 15.2842 8.0914 15.954C8.76118 16.6237 9.66958 17 10.6168 17C11.564 17 12.4724 16.6237 13.1422 15.954C13.8119 15.2842 14.1882 14.3758 14.1882 13.4286C14.1882 12.4814 13.8119 11.573 13.1422 10.9032C12.4724 10.2334 11.564 9.85714 10.6168 9.85714Z" fill="white"/>
</svg>
