<svg width="16" height="16" viewBox="0 0 16 16" fill="none" xmlns="http://www.w3.org/2000/svg">
<path d="M14.9458 4.98047C14.9458 4.6474 14.9068 4.32367 14.8317 4.0155L13.3632 5.53766C13.0929 5.81781 12.7265 5.97656 12.3451 5.97656H11.5823C10.7864 5.97656 10.1407 5.30731 10.1407 4.48242V3.69177C10.1407 3.29645 10.2939 2.91669 10.5642 2.63654L12.0327 1.11438C11.7354 1.03656 11.4231 0.996094 11.1018 0.996094C8.9785 0.996094 7.25767 2.77972 7.25767 4.98047C7.25767 5.26685 7.2877 5.54388 7.34176 5.81158C7.43786 6.28473 7.32374 6.82013 6.94834 7.20923L1.90598 12.4325C1.6417 12.7095 1.49154 13.0831 1.49154 13.4722C1.49154 14.2846 2.12521 14.9414 2.90905 14.9414C3.28444 14.9414 3.64483 14.7858 3.91211 14.5118L8.95447 9.28546C9.32687 8.89948 9.84642 8.77808 10.3029 8.87769C10.5612 8.93372 10.8285 8.96484 11.1048 8.96484C13.228 8.96484 14.9488 7.18121 14.9488 4.98047H14.9458ZM15.9069 4.98047C15.9069 7.73218 13.7566 9.96094 11.1018 9.96094C10.7594 9.96094 10.423 9.92358 10.1017 9.85199C9.93351 9.81464 9.75632 9.86133 9.63319 9.98895L4.59083 15.2153C4.14336 15.6791 3.53972 15.9375 2.90905 15.9375C1.59665 15.9375 0.530518 14.8325 0.530518 13.4722C0.530518 12.8185 0.779783 12.1928 1.22726 11.729L6.26962 6.50262C6.39275 6.375 6.4378 6.19135 6.40176 6.01703C6.33268 5.68396 6.29665 5.33533 6.29665 4.98047C6.29665 2.22876 8.44693 0 11.1018 0C11.8465 0 12.5523 0.177429 13.183 0.488708C13.4593 0.625671 13.4983 1.00232 13.2821 1.22644L11.2429 3.34003C11.1528 3.43341 11.1018 3.56104 11.1018 3.69177V4.48242C11.1018 4.75635 11.318 4.98047 11.5823 4.98047H12.3451C12.4712 4.98047 12.5943 4.92755 12.6844 4.83417L14.7236 2.72058C14.9398 2.49646 15.3032 2.53693 15.4354 2.8233C15.7387 3.47699 15.9069 4.2085 15.9069 4.98047ZM3.17333 12.7002C3.30077 12.7002 3.42299 12.7527 3.5131 12.8461C3.60321 12.9395 3.65384 13.0662 3.65384 13.1982C3.65384 13.3303 3.60321 13.457 3.5131 13.5504C3.42299 13.6438 3.30077 13.6963 3.17333 13.6963C3.04589 13.6963 2.92367 13.6438 2.83355 13.5504C2.74344 13.457 2.69282 13.3303 2.69282 13.1982C2.69282 13.0662 2.74344 12.9395 2.83355 12.8461C2.92367 12.7527 3.04589 12.7002 3.17333 12.7002Z" fill="#001D36"/>
</svg>
