<svg width="25" height="25" viewBox="0 0 25 25" fill="none" xmlns="http://www.w3.org/2000/svg">
<path fill-rule="evenodd" clip-rule="evenodd" d="M14.4903 3.47489C13.8677 3.24817 13.197 3.125 12.5 3.125C9.53493 3.125 7.04399 5.3545 6.71655 8.30148L6.45425 10.6621C6.44292 10.7641 6.43725 10.8152 6.431 10.8656C6.29787 11.9393 5.9483 12.9749 5.40345 13.9097C5.37787 13.9536 5.35146 13.9976 5.29864 14.0857L4.69652 15.0892C4.11569 16.0573 3.82527 16.5413 3.91746 16.9358C3.96108 17.1226 4.05747 17.2928 4.19514 17.4263C4.48605 17.7083 5.05052 17.7083 6.17945 17.7083H18.8206C19.9496 17.7083 20.514 17.7083 20.8049 17.4263C20.9426 17.2928 21.039 17.1226 21.0826 16.9358C21.1748 16.5413 20.8844 16.0573 20.3036 15.0892L19.7014 14.0857L19.7013 14.0855C19.6486 13.9976 19.6222 13.9536 19.5966 13.9097C19.1312 13.1111 18.8082 12.2389 18.641 11.3322C15.8839 11.2742 13.6667 9.021 13.6667 6.25C13.6667 5.22604 13.9695 4.27279 14.4903 3.47489ZM16.9522 5.1967C17.6676 6.04564 18.1463 7.10557 18.2812 8.28035C17.3564 8.06765 16.6667 7.23936 16.6667 6.25C16.6667 5.86572 16.7708 5.50574 16.9522 5.1967Z" fill="#1996F0"/>
<path d="M9.375 17.7085C9.375 18.1189 9.45583 18.5252 9.61288 18.9044C9.76992 19.2835 10.0001 19.628 10.2903 19.9182C10.5805 20.2084 10.925 20.4386 11.3041 20.5956C11.6833 20.7527 12.0896 20.8335 12.5 20.8335C12.9104 20.8335 13.3167 20.7527 13.6959 20.5956C14.075 20.4386 14.4195 20.2084 14.7097 19.9182C14.9999 19.628 15.2301 19.2835 15.3871 18.9044C15.5442 18.5252 15.625 18.1189 15.625 17.7085L12.5 17.7085H9.375Z" fill="#1996F0"/>
<path d="M18.7501 8.83317C20.1768 8.83317 21.3334 7.67657 21.3334 6.24984C21.3334 4.8231 20.1768 3.6665 18.7501 3.6665C17.3233 3.6665 16.1667 4.8231 16.1667 6.24984C16.1667 7.67657 17.3233 8.83317 18.7501 8.83317Z" fill="#1996F0" stroke="#1996F0"/>
</svg>
