<svg width="25" height="25" viewBox="0 0 25 25" fill="none" xmlns="http://www.w3.org/2000/svg">
<path fill-rule="evenodd" clip-rule="evenodd" d="M5.79404 3.71079C5.20825 4.29657 5.20825 5.23938 5.20825 7.125V18.0982C5.20825 19.9838 5.20825 20.9266 5.79404 21.5124C6.37982 22.0982 7.32263 22.0982 9.20825 22.0982H16.8333C18.7189 22.0982 19.6617 22.0982 20.2475 21.5124C20.8333 20.9266 20.8333 19.9838 20.8333 18.0982V7.125C20.8333 5.23938 20.8333 4.29657 20.2475 3.71079C19.6617 3.125 18.7189 3.125 16.8333 3.125H9.20825C7.32263 3.125 6.37982 3.125 5.79404 3.71079ZM9.67254 8.82143C9.12025 8.82143 8.67254 9.26914 8.67254 9.82143C8.67254 10.3737 9.12025 10.8214 9.67254 10.8214H16.369C16.9212 10.8214 17.369 10.3737 17.369 9.82143C17.369 9.26914 16.9212 8.82143 16.369 8.82143H9.67254ZM9.67254 13.2857C9.12025 13.2857 8.67254 13.7334 8.67254 14.2857C8.67254 14.838 9.12025 15.2857 9.67254 15.2857H16.369C16.9212 15.2857 17.369 14.838 17.369 14.2857C17.369 13.7334 16.9212 13.2857 16.369 13.2857H9.67254ZM9.67254 17.75C9.12025 17.75 8.67254 18.1977 8.67254 18.75C8.67254 19.3023 9.12025 19.75 9.67254 19.75H14.1368C14.6891 19.75 15.1368 19.3023 15.1368 18.75C15.1368 18.1977 14.6891 17.75 14.1368 17.75H9.67254Z" fill="#1996F0"/>
</svg>
