<svg xmlns="http://www.w3.org/2000/svg" xmlns:xlink="http://www.w3.org/1999/xlink" width="800" height="800" style="width:100%;height:100%;transform:translate3d(0,0,0);content-visibility:visible"><defs><clipPath id="e"><path d="M0 0h800v800H0z"/></clipPath><clipPath id="l"><path fill="#fff" d="M831.191 479H248v2.332h583.191V479"/></clipPath><clipPath id="g"><path fill="#fff" d="M783.633 479.5H540v-79h243.633v79"/></clipPath><clipPath id="a"><path fill="#fff" d="M326.113 364.929h91.302a5 5 0 0 0 3.722-1.661l29.066-32.389a3.001 3.001 0 0 0-2.232-5.004h-80.004c-2.609 0-5.133.928-7.122 2.616l-36.674 31.151a3 3 0 0 0 1.942 5.287"/></clipPath><clipPath id="i"><path fill="#fff" d="M371.824 262.5H346.5v135.4h25.324V262.5"/></clipPath><clipPath id="m"><path d="M0 0h800v800H0z"/></clipPath><clipPath id="b"><path fill="#fff" d="M326.113 364.929h91.302a5 5 0 0 0 3.722-1.661l29.066-32.389a3.001 3.001 0 0 0-2.232-5.004h-80.004c-2.609 0-5.133.928-7.122 2.616l-36.674 31.151a3 3 0 0 0 1.942 5.287"/></clipPath><clipPath id="k"><path fill="#fff" d="M353.5 262.5h-7v135.4h7V262.5"/></clipPath><clipPath id="f"><path d="M0 0h800v800H0z"/></clipPath><mask id="h" mask-type="alpha"><use xlink:href="#d"/></mask><mask id="j" mask-type="alpha"><use xlink:href="#c"/></mask><mask id="n"><path fill="#fff" transform="translate(-5.5 1.5)" d="M0 0h800v800H0z"/><path d="M754.785 482.285H458V557h296.785v-74.715"/></mask><g clip-path="url(#a)" style="display:block" id="c"><path fill="#eac885" d="M0 0h800v800H0z"/></g><g clip-path="url(#b)" style="display:block" id="d"><path fill="#eac885" d="M0 0h800v800H0z"/></g></defs><g clip-path="url(#e)"><path stroke-linecap="round" stroke="#C5C5C5" stroke-width="5" d="M53.5-67H189" fill="none" transform="translate(-198 356)" style="display:block"/><path fill="#4A4A6E" d="M0 36.5c22.644 0 41-16.342 41-36.5S22.644-36.5 0-36.5-41-20.158-41 0s18.356 36.5 41 36.5z" transform="translate(252.306 445.39)" style="display:block"/><g clip-path="url(#f)" transform="matrix(.4 0 0 .4 226.45 287.9)" opacity=".5" style="display:block"><g clip-path="url(#g)"><path fill="#C4C4D8" d="M0-38.33c21.154 0 38.33 17.176 38.33 38.33S21.154 38.33 0 38.33-38.33 21.154-38.33 0-21.154-38.33 0-38.33z" transform="matrix(.66034 0 0 .5318 700.174 482.54)" style="display:block"/><path fill="#C4C4D8" d="M0-38.33c21.154 0 38.33 17.176 38.33 38.33S21.154 38.33 0 38.33-38.33 21.154-38.33 0-21.154-38.33 0-38.33z" transform="matrix(.75735 0 0 .658 670.407 474.123)" style="display:block"/><path fill="#C4C4D8" d="M0-38.33c21.154 0 38.33 17.176 38.33 38.33S21.154 38.33 0 38.33-38.33 21.154-38.33 0-21.154-38.33 0-38.33z" transform="matrix(.85437 0 0 .7842 639.695 470.507)" style="display:block"/><path fill="#C4C4D8" d="M0-38.33c21.154 0 38.33 17.176 38.33 38.33S21.154 38.33 0 38.33-38.33 21.154-38.33 0-21.154-38.33 0-38.33z" transform="matrix(.80343 0 0 .71794 608.853 472.573)" style="display:block"/><path fill="#C4C4D8" d="M0-38.33c21.154 0 38.33 17.176 38.33 38.33S21.154 38.33 0 38.33-38.33 21.154-38.33 0-21.154-38.33 0-38.33z" transform="matrix(.6891 0 0 .5692 579.116 480.976)" style="display:block"/><path fill="#C4C4D8" d="M0-38.33c21.154 0 38.33 17.176 38.33 38.33S21.154 38.33 0 38.33-38.33 21.154-38.33 0-21.154-38.33 0-38.33z" transform="matrix(.57476 0 0 .42047 551.875 495.567)" style="display:block"/></g></g><path fill="#4A4A6E" d="M0 36.5c22.645 0 41-16.342 41-36.5S22.645-36.5 0-36.5c-22.644 0-41 16.342-41 36.5s18.356 36.5 41 36.5z" transform="translate(432.306 445.39)" style="display:block"/><path fill="#4A4A6E" d="M0 36.5c22.645 0 41-16.342 41-36.5S22.645-36.5 0-36.5c-22.644 0-41 16.342-41 36.5s18.356 36.5 41 36.5z" transform="translate(543.806 445.39)" style="display:block"/><path fill="#5675B8" d="M0 21c11.599 0 21-9.402 21-21S11.599-21 0-21c-11.598 0-21 9.402-21 21s9.402 21 21 21z" transform="translate(548.306 445.89)" style="display:block"/><path fill="#4A4A6E" d="M0 36.5c22.644 0 41-16.342 41-36.5S22.644-36.5 0-36.5-41-20.158-41 0s18.356 36.5 41 36.5z" transform="translate(369.306 445.39)" style="display:block"/><path fill="#5675B8" d="M0 21c11.598 0 21-9.402 21-21S11.598-21 0-21s-21 9.402-21 21 9.402 21 21 21z" transform="translate(374.306 445.89)" style="display:block"/><path fill="#FFF" d="M0 14c6.351 0 11.5-6.268 11.5-14S6.351-14 0-14c-6.352 0-11.5 6.268-11.5 14S-6.352 14 0 14z" transform="translate(369.806 445.828)" style="display:block"/><path fill="#FFF" d="M0 14c6.351 0 11.5-6.268 11.5-14S6.351-14 0-14c-6.352 0-11.5 6.268-11.5 14S-6.352 14 0 14z" transform="translate(545.306 445.828)" style="display:block"/><path fill="#EE966C" d="M-6.378-6h9.306c.807 0 1.536.485 1.846 1.231l3.333 8A2 2 0 0 1 6.261 6H-5.045a2 2 0 0 1-1.972-1.671l-1.334-8A2.001 2.001 0 0 1-6.378-6z" transform="translate(311.685 360.89)" style="display:block"/><g style="display:block"><path fill="#AB6F6C" d="M623.965 396.68h2.094a2 2 0 0 1 2 2l-.001.073-.326 8.953a2 2 0 0 1-1.958 1.927l-1.809.037v-12.99z"/><path fill="#D6D5E1" d="m626.05 396.631-.569 13.026h-1.821l.308-13.026h2.082z"/><path fill="#4A4A6E" d="M410.306 440.89h111v9h-111v-9zM276.306 440.89h58.952v9h-58.952v-9z"/><path fill="#EAC785" d="M172.306 390.941c0-7.559 6.215-12.484 18.646-14.776 12.43-2.293 51.129-5.289 116.098-8.99l50.709-43.222c3.005-2.709 6.469-4.063 10.392-4.063H502.83c18.174.577 35.212 7.335 51.114 20.275 23.855 19.409 19.398 18.021 38.115 27.01 18.718 8.99 31.971 9.475 31.971 17.537 0 8.063 2.102 32.923-2.8 40.877-3.267 5.303-15.233 11.814-35.9 19.533-4.129-23.383-15.109-35.075-32.941-35.075-12.509 0-29.739 4.609-35.369 20.499-3.441 9.717-11.914 14.576-25.414 14.576H410.33c-2.574-23.383-14.339-35.075-35.295-35.075-26.091 0-32.688 27.96-43.102 27.96h-156.19l-3.437-47.066z"/><path fill="#4A4A6E" d="M513.415 331.002a3 3 0 0 1 2.916-3.701c20.044 9.026 30.981 15.807 32.813 20.342 1.831 4.534-.196 7.741-6.081 9.62l-18.087 4.542-.04.009a4 4 0 0 1-4.824-2.954l-6.697-27.858zM434.001 364.952h68.929a5.001 5.001 0 0 0 4.855-6.192l-7.131-29.054a5 5 0 0 0-4.856-3.808h-28.034a11.002 11.002 0 0 0-8.117 3.575l-27.86 30.454a3 3 0 0 0 2.214 5.025zM326.044 364.944h91.302a5 5 0 0 0 3.722-1.661l29.066-32.389a3.001 3.001 0 0 0-2.232-5.004h-80.004c-2.609 0-5.133.928-7.122 2.616l-36.674 31.151a3 3 0 0 0 1.942 5.287z"/><path fill="#EE966C" d="M621.497 425.501c-3.268 5.303-15.235 11.814-35.902 19.532-2.601-14.73-7.92-24.821-15.959-30.271h54.62c-.458 4.487-1.297 8.366-2.759 10.739zm-104.21 4.957c-3.442 9.717-11.914 14.575-25.414 14.575h-81.278c-1.622-14.73-6.89-24.821-15.807-30.271H531.36c-6.138 3.173-11.407 8.169-14.073 15.696zm-185.088 7.461h-156.19l-1.703-23.318c3.404-.744 3.404-4.152 3.404-12.049 0-6.041 0-17.661 9.509-17.661h122.788c16.435 0 17.661 5.852 17.661 17.661 0 7.872 4.069 11.941 12.209 12.21h18.429c-12.84 7.993-18.438 23.157-26.107 23.157z"/><path stroke-linecap="round" stroke-miterlimit="10" stroke="#EAC785" stroke-width="7" d="M340.306 428.133c8.667-13.495 21.282-20.243 37.848-20.243 16.565 0 27.971 9.189 34.219 27.568" fill="none"/><path stroke-linecap="round" stroke-miterlimit="10" stroke="#FFF" stroke-width="7" d="M358.227 411.972c5.846-2.722 12.488-4.082 19.926-4.082 2.382 0 4.657.19 6.826.57" fill="none"/><path stroke-linecap="round" stroke-miterlimit="10" stroke="#EAC785" stroke-width="7" d="M514.306 428.133c8.667-13.495 21.282-20.243 37.847-20.243s27.971 9.189 34.219 27.568" fill="none"/><path stroke-linecap="round" stroke-miterlimit="10" stroke="#EE966C" d="M420.305 418.992V371.81c0-1.958.719-3.847 2.019-5.311l36.943-41.609m56.162 94.102v-49.31c0-.605-.068-1.209-.204-1.798l-9.92-42.994" fill="none"/><path fill="#EE966C" d="M498.306 370.89h8a3 3 0 0 1 3 3v3a3 3 0 0 1-3 3h-8a3 3 0 0 1-3-3v-3a3 3 0 0 1 3-3z"/><path stroke-linecap="round" stroke-miterlimit="10" stroke="#FFF" stroke-width="5" d="M499.72 375.514h12.805" fill="none"/><path fill="#FFF" d="M364.862 366.89c-75.914 2.165-98.317 5.001-109.206 9.699-7.26 3.133-11.042 7.579-11.35 13.342h-12.991c.238-6.701 3.476-11.148 9.711-13.342 8.28-2.913 48.084-9.699 103.186-9.699 27.751 0 28.244-.884 20.65 0z"/><path fill="#FFF" d="M394.862 366.89c-75.914 2.165-98.317 5.001-109.206 9.699-7.26 3.133-11.042 7.579-11.35 13.342h-12.991c.238-6.701 3.476-11.148 9.711-13.342 8.28-2.913 48.084-9.699 103.186-9.699 27.75 0 28.244-.884 20.65 0z"/><path fill="#EAC785" d="M275.624 384.89c-.782 1.551-1.222 3.232-1.318 5.042h-12.992c.066-1.853.361-3.534.886-5.042h13.424zM245.624 384.89c-.782 1.551-1.222 3.232-1.318 5.042h-12.992c.066-1.853.361-3.534.886-5.042h13.424z"/><path stroke-linecap="round" stroke-miterlimit="10" stroke="#FFF" stroke-width="7" d="M532.305 411.972c5.846-2.722 12.488-4.082 19.927-4.082 2.382 0 4.657.19 6.825.57" fill="none"/></g><g mask="url(#h)" style="display:block"><g clip-path="url(#i)" transform="rotate(-5 363.5 1235.987)"><path fill="#fff" d="M0 0h800v800H0z"/></g></g><g mask="url(#j)" style="display:block"><g clip-path="url(#k)" transform="rotate(-5 382.003 812.27)"><path fill="#fff" d="M0 0h800v800H0z"/></g></g><g style="display:block"><path fill="#815067" d="M187.734 389.89h122.972a6 6 0 0 1 5.985 5.587l1.173 17a6 6 0 0 1-5.986 6.413H188.906a5.999 5.999 0 0 1-5.985-5.587l-1.172-17a6 6 0 0 1 5.985-6.413z"/><path fill="#FFF" d="M301.806 413.89c3.59 0 6.5-4.029 6.5-9s-2.91-9-6.5-9-6.5 4.029-6.5 9 2.91 9 6.5 9zM199.806 413.89c3.59 0 6.5-4.029 6.5-9s-2.91-9-6.5-9-6.5 4.029-6.5 9 2.91 9 6.5 9z"/><path fill="#4A4A6E" d="M219.306 397.89h1a2 2 0 0 1 2 2v9a2 2 0 0 1-2 2h-1a2 2 0 0 1-2-2v-9a2 2 0 0 1 2-2zM282.306 397.89h1a2 2 0 0 1 2 2v9a2 2 0 0 1-2 2h-1a2 2 0 0 1-2-2v-9a2 2 0 0 1 2-2zM228.306 397.89h46a2 2 0 0 1 2 2v9a2 2 0 0 1-2 2h-46a2 2 0 0 1-2-2v-9a2 2 0 0 1 2-2z"/></g><path fill="#D6D5E1" d="M-7.522-11.5H7.837a5 5 0 0 1 4.927 5.856l-2.261 13A5 5 0 0 1 5.577 11.5H-5.827a5.001 5.001 0 0 1-4.958-4.354l-1.695-13A4.999 4.999 0 0 1-7.522-11.5z" transform="translate(616.829 429.39)" style="display:block"/><g style="display:block"><path fill="#D6D5E1" d="M173.001 420.89h159.916a5 5 0 0 1 4.957 4.354l1.696 13a5 5 0 0 1-4.959 5.646H174.697a5 5 0 0 1-4.959-4.354l-1.696-13a5 5 0 0 1 4.959-5.646z"/><path fill="#C4C4D7" d="M213.603 420.89h2.774l3.226 23h-3.774l-2.226-23zM296.603 420.89h3.774l3.226 23h-3.774l-3.226-23z"/><path fill="#D6D5E1" d="M290.308 415.89h2.687a5 5 0 0 1 4.957 4.346l2.905 22a5 5 0 0 1-4.957 5.654h-2.687a4.999 4.999 0 0 1-4.957-4.346l-2.905-22a5 5 0 0 1 4.957-5.654zM206.308 415.89h2.687a5 5 0 0 1 4.957 4.346l2.905 22a5 5 0 0 1-4.957 5.654h-2.687a4.999 4.999 0 0 1-4.957-4.346l-2.905-22a5 5 0 0 1 4.957-5.654z"/></g><g style="display:block"><path fill="#EE966C" d="M430.806 371.89a3.5 3.5 0 1 0 .001-6.999 3.5 3.5 0 0 0-.001 6.999z"/><path stroke-linecap="round" stroke-miterlimit="10" stroke="#EAC785" stroke-width="2" d="m438.25 363.89-6.944 4.358" fill="none"/><path fill="#EE966C" d="M438.306 354.89h14a2 2 0 0 1 2 2v8a2 2 0 0 1-2 2h-14a2 2 0 0 1-2-2v-8a2 2 0 0 1 2-2z"/></g><g clip-path="url(#l)" transform="translate(0 .5)" style="display:block"><path fill="#4b4b6f" d="M0 0h800v800H0z"/></g><g clip-path="url(#m)" transform="translate(5.5 -1.5)" opacity=".6" style="display:block"><g mask="url(#n)"><path fill="#C4C4D8" d="M0-38.33c21.154 0 38.33 17.176 38.33 38.33S21.154 38.33 0 38.33-38.33 21.154-38.33 0-21.154-38.33 0-38.33z" transform="matrix(.66034 0 0 .5318 700.174 482.54)" style="display:block"/><path fill="#C4C4D8" d="M0-38.33c21.154 0 38.33 17.176 38.33 38.33S21.154 38.33 0 38.33-38.33 21.154-38.33 0-21.154-38.33 0-38.33z" transform="matrix(.75735 0 0 .658 670.407 474.123)" style="display:block"/><path fill="#C4C4D8" d="M0-38.33c21.154 0 38.33 17.176 38.33 38.33S21.154 38.33 0 38.33-38.33 21.154-38.33 0-21.154-38.33 0-38.33z" transform="matrix(.85437 0 0 .7842 639.695 470.507)" style="display:block"/><path fill="#C4C4D8" d="M0-38.33c21.154 0 38.33 17.176 38.33 38.33S21.154 38.33 0 38.33-38.33 21.154-38.33 0-21.154-38.33 0-38.33z" transform="matrix(.80343 0 0 .71794 608.853 472.573)" style="display:block"/><path fill="#C4C4D8" d="M0-38.33c21.154 0 38.33 17.176 38.33 38.33S21.154 38.33 0 38.33-38.33 21.154-38.33 0-21.154-38.33 0-38.33z" transform="matrix(.6891 0 0 .5692 579.116 480.976)" style="display:block"/><path fill="#C4C4D8" d="M0-38.33c21.154 0 38.33 17.176 38.33 38.33S21.154 38.33 0 38.33-38.33 21.154-38.33 0-21.154-38.33 0-38.33z" transform="matrix(.57476 0 0 .42047 551.875 495.567)" style="display:block"/></g></g></g></svg>