<svg width="24" height="24" viewBox="0 0 24 24" fill="none" xmlns="http://www.w3.org/2000/svg">
<g clip-path="url(#clip0_34_274)">
<path d="M12 0C11.1703 0 10.5 0.670312 10.5 1.5V2.4C7.07812 3.09375 4.5 6.12187 4.5 9.75V10.6313C4.5 12.8344 3.68906 14.9625 2.22656 16.6125L1.87969 17.0016C1.48594 17.4422 1.39219 18.075 1.63125 18.6141C1.87031 19.1531 2.40937 19.5 3 19.5H21C21.5906 19.5 22.125 19.1531 22.3688 18.6141C22.6125 18.075 22.5141 17.4422 22.1203 17.0016L21.7734 16.6125C20.3109 14.9625 19.5 12.8391 19.5 10.6313V9.75C19.5 6.12187 16.9219 3.09375 13.5 2.4V1.5C13.5 0.670312 12.8297 0 12 0ZM14.1234 23.1234C14.6859 22.5609 15 21.7969 15 21H12H9C9 21.7969 9.31406 22.5609 9.87656 23.1234C10.4391 23.6859 11.2031 24 12 24C12.7969 24 13.5609 23.6859 14.1234 23.1234ZM5.31563 0.721875C4.88906 0.271875 4.17656 0.253125 3.72656 0.684375C1.42969 2.86875 0 5.95781 0 9.375C0 9.99844 0.501562 10.5 1.125 10.5C1.74844 10.5 2.25 9.99844 2.25 9.375C2.25 6.59531 3.4125 4.09219 5.27812 2.31563C5.72813 1.88906 5.74688 1.17656 5.31563 0.726562V0.721875ZM18.7219 2.31563C20.5875 4.09219 21.75 6.59531 21.75 9.375C21.75 9.99844 22.2516 10.5 22.875 10.5C23.4984 10.5 24 9.99844 24 9.375C24 5.95781 22.5703 2.86875 20.2781 0.684375C19.8281 0.257812 19.1156 0.271875 18.6891 0.721875C18.2625 1.17188 18.2766 1.88437 18.7266 2.31094L18.7219 2.31563Z" fill="#001D36"/>
</g>
<defs>
<clipPath id="clip0_34_274">
<rect width="24" height="24" fill="white"/>
</clipPath>
</defs>
</svg>
