<svg width="34" height="32" viewBox="0 0 34 32" fill="none" xmlns="http://www.w3.org/2000/svg">
<path d="M9.30537 11.1074C9.77936 7.15443 13.1327 4.1792 17.114 4.1792V4.1792C21.0953 4.1792 24.4486 7.15443 24.9225 11.1074L25.1984 13.4084C25.2664 13.9747 25.3003 14.2579 25.3535 14.5348C25.512 15.3597 25.7994 16.1545 26.2052 16.89C26.3414 17.1369 26.4964 17.3763 26.8064 17.8551L27.6752 19.197C28.5569 20.5586 28.9978 21.2395 28.7138 21.7617C28.4297 22.284 27.6186 22.284 25.9964 22.284H8.23148C6.60927 22.284 5.79817 22.284 5.51416 21.7617C5.23014 21.2395 5.67099 20.5586 6.55267 19.197L7.4215 17.8551C7.73153 17.3763 7.88655 17.1369 8.02277 16.89C8.42853 16.1545 8.71593 15.3597 8.8744 14.5348C8.9276 14.2579 8.96156 13.9747 9.02947 13.4084L9.30537 11.1074Z" stroke="#191C20" stroke-width="2"/>
<path d="M11.5316 22.2842C11.5316 22.9635 11.676 23.6362 11.9565 24.2638C12.2371 24.8914 12.6483 25.4616 13.1666 25.942C13.685 26.4223 14.3004 26.8033 14.9776 27.0633C15.6549 27.3232 16.3808 27.457 17.1139 27.457C17.847 27.457 18.5729 27.3232 19.2501 27.0633C19.9274 26.8033 20.5428 26.4223 21.0612 25.942C21.5795 25.4616 21.9907 24.8914 22.2712 24.2638C22.5518 23.6362 22.6962 22.9635 22.6962 22.2842" stroke="#191C20" stroke-width="2" stroke-linecap="round"/>
</svg>
