<svg width="25" height="20" viewBox="0 0 25 20" fill="none" xmlns="http://www.w3.org/2000/svg">
<g clip-path="url(#clip0_79_407)">
<path d="M7.28181 0.363281C7.18025 0.140625 6.95759 0 6.71541 0C6.47322 0 6.25056 0.140625 6.149 0.363281L4.89509 3.09375L1.97713 2.37109C1.73884 2.3125 1.48884 2.39844 1.34041 2.58984C1.19197 2.78125 1.16072 3.04297 1.27009 3.26172L2.62166 5.94141L0.242751 7.76953C0.0474381 7.91797 -0.0384995 8.16797 0.016188 8.40234C0.0708755 8.63672 0.258375 8.82422 0.496657 8.875L3.43416 9.49219L3.37947 12.4922C3.37556 12.7344 3.51228 12.9609 3.73494 13.0664C3.95759 13.1719 4.21541 13.1406 4.40291 12.9844L5.40681 12.1523C5.41853 12.0391 5.43806 11.9258 5.46931 11.8125L5.93025 10.0977L4.65291 11.1523L4.69197 8.99219C4.69588 8.69141 4.48884 8.42969 4.19588 8.37109L2.08259 7.93359L3.79353 6.61719C4.03181 6.43359 4.10603 6.10938 3.96931 5.83984L3.00056 3.91016L5.09822 4.42969C5.39119 4.5 5.69197 4.35547 5.81697 4.08203L6.71541 2.12109L7.61775 4.08203C7.74275 4.35547 8.04353 4.5 8.3365 4.42969L10.2193 3.96484L11.1256 2.45312L8.53572 3.09375L7.28181 0.363281ZM14.7193 3.08203L21.1412 4.80078C21.6803 4.94531 22.0592 5.42969 22.067 5.98828L22.1178 8.94531L11.8053 6.18359L13.3248 3.64844C13.6099 3.16797 14.1803 2.9375 14.7193 3.08203ZM12.2506 3.00391L10.4459 6.01172C9.17244 6.125 8.04744 7.01172 7.69978 8.31641L6.67634 12.1406C6.66463 12.1914 6.65291 12.2422 6.649 12.2891L6.63728 12.2852L6.05525 14.4531C5.94978 14.8438 6.18025 15.2422 6.57088 15.3477C6.9615 15.4531 7.35994 15.2227 7.46541 14.832L7.84431 13.4258L21.9263 17.1992L21.5474 18.6094C21.442 19 21.6724 19.3984 22.0631 19.5039C22.4537 19.6094 22.8521 19.3789 22.9576 18.9883L23.5592 16.7422H23.5553C23.5631 16.7188 23.5709 16.6992 23.5748 16.6758L24.5982 12.8555C24.9459 11.5508 24.4185 10.2188 23.3717 9.48438L23.317 5.96875C23.2974 4.85156 22.5435 3.88281 21.4654 3.59375L15.0435 1.875C13.9654 1.58594 12.8248 2.04688 12.2506 3.00391ZM22.067 10.2266C23.067 10.4961 23.6607 11.5234 23.3912 12.5234L22.4498 16.043L7.96541 12.1602L8.90681 8.64062C9.17634 7.64062 10.2037 7.04688 11.2037 7.31641L22.0631 10.2266H22.067ZM10.7115 11.1719C10.9917 11.247 11.2903 11.2077 11.5416 11.0626C11.7929 10.9176 11.9762 10.6787 12.0513 10.3984C12.1265 10.1182 12.0872 9.8196 11.9421 9.56833C11.7971 9.31706 11.5581 9.1337 11.2779 9.05859C10.9977 8.98348 10.6991 9.02277 10.4478 9.16782C10.3234 9.23964 10.2143 9.33526 10.1269 9.44923C10.0394 9.5632 9.97525 9.69327 9.93806 9.83203C9.90087 9.97079 9.89138 10.1155 9.91012 10.2579C9.92886 10.4004 9.97547 10.5377 10.0473 10.6621C10.1923 10.9134 10.4313 11.0968 10.7115 11.1719ZM21.9068 13.0391C21.944 12.9003 21.9535 12.7556 21.9348 12.6131C21.916 12.4707 21.8694 12.3334 21.7976 12.209C21.7258 12.0845 21.6301 11.9755 21.5162 11.888C21.4022 11.8006 21.2721 11.7364 21.1334 11.6992C20.9946 11.662 20.8499 11.6525 20.7075 11.6713C20.565 11.69 20.4277 11.7366 20.3033 11.8084C20.1789 11.8803 20.0698 11.9759 19.9823 12.0899C19.8949 12.2038 19.8307 12.3339 19.7935 12.4727C19.7563 12.6114 19.7468 12.7561 19.7656 12.8986C19.7843 13.041 19.8309 13.1783 19.9028 13.3028C19.9746 13.4272 20.0702 13.5362 20.1842 13.6237C20.2981 13.7112 20.4282 13.7753 20.567 13.8125C20.7057 13.8497 20.8505 13.8592 20.9929 13.8404C21.1353 13.8217 21.2727 13.7751 21.3971 13.7033C21.5215 13.6315 21.6305 13.5358 21.718 13.4219C21.8055 13.3079 21.8696 13.1778 21.9068 13.0391Z" fill="#001D36"/>
</g>
<defs>
<clipPath id="clip0_79_407">
<rect width="25" height="20" fill="white"/>
</clipPath>
</defs>
</svg>
