<svg width="21" height="16" viewBox="0 0 21 16" fill="none" xmlns="http://www.w3.org/2000/svg">
<g clip-path="url(#clip0_79_391)">
<path d="M11.6774 3H9.11463V5H12.7024L14.7526 6L19.8781 5L20.9032 6L14.2401 13H12.7024H4.50173H3.47664V12V11L0.401367 9.5V6V5H1.42646H3.47664H4.50173H8.08954V3H5.52682V2H11.6774V3ZM3.47664 6H1.42646V8.88125L3.47664 9.88125V6ZM14.6085 7.04688L14.2945 6.89375L12.459 6H4.50173V10.3813V11.5V12H12.7024H13.7916L19.3944 6.1125L14.9544 6.98125L14.6085 7.05V7.04688ZM19.8781 12.5C19.8781 12.4594 19.8492 12.3 19.7211 12.0031C19.6282 11.7875 19.5033 11.5562 19.3655 11.3219C19.2278 11.5531 19.1061 11.7875 19.0099 12.0031C18.8786 12.3 18.853 12.4594 18.853 12.5C18.853 12.775 19.0836 13 19.3655 13C19.5898 13 19.7083 12.9344 19.7595 12.8906C19.798 12.8562 19.8781 12.7656 19.8781 12.5ZM17.8279 12.5C17.8279 11.9312 18.3212 11.0438 18.7505 10.3813C19.0772 9.875 19.3655 9.5 19.3655 9.5C19.3655 9.5 19.6538 9.875 19.9806 10.3813C20.4098 11.0438 20.9032 11.9312 20.9032 12.5C20.9032 13.5 20.2144 14 19.3655 14C18.5166 14 17.8279 13.3281 17.8279 12.5Z" fill="#001D36"/>
</g>
<defs>
<clipPath id="clip0_79_391">
<rect width="20.5018" height="16" fill="white" transform="translate(0.401367)"/>
</clipPath>
</defs>
</svg>
