<svg width="25" height="25" viewBox="0 0 25 25" fill="none" xmlns="http://www.w3.org/2000/svg">
<path fill-rule="evenodd" clip-rule="evenodd" d="M16.4125 2.80176L12.1397 2.13031C8.91909 1.62422 7.3088 1.37118 6.25853 2.2693C5.20825 3.16741 5.20825 4.79747 5.20825 8.05758V11.4999H11.461L8.59405 7.91622L10.1558 6.66683L14.3225 11.8752L14.8222 12.4999L14.3225 13.1245L10.1558 18.3329L8.59405 17.0835L11.461 13.4999H5.20825V16.9413C5.20825 20.2014 5.20825 21.8314 6.25853 22.7295C7.3088 23.6277 8.91909 23.3746 12.1397 22.8685L16.4125 22.1971C18.0253 21.9437 18.8316 21.8169 19.3116 21.2556C19.7916 20.6944 19.7916 19.8781 19.7916 18.2456V6.75327C19.7916 5.12075 19.7916 4.30449 19.3116 3.7432C18.8316 3.18191 18.0253 3.05519 16.4125 2.80176Z" fill="#A30909"/>
</svg>
