<svg width="25" height="25" viewBox="0 0 25 25" fill="none" xmlns="http://www.w3.org/2000/svg">
<path d="M21 17H5" stroke="#E3A327" stroke-width="2" stroke-linecap="round"/>
<path d="M13 9L13.2865 10.0038L14.299 9.75L13.5729 10.5L14.299 11.25L13.2865 10.9962L13 12L12.7135 10.9962L11.701 11.25L12.4271 10.5L11.701 9.75L12.7135 10.0038L13 9Z" stroke="#E3A327" stroke-width="2" stroke-linecap="round" stroke-linejoin="round"/>
<path d="M6.5 9L6.78647 10.0038L7.79904 9.75L7.07295 10.5L7.79904 11.25L6.78647 10.9962L6.5 12L6.21353 10.9962L5.20096 11.25L5.92705 10.5L5.20096 9.75L6.21353 10.0038L6.5 9Z" stroke="#E3A327" stroke-width="2" stroke-linecap="round" stroke-linejoin="round"/>
<path d="M19.5 9L19.7865 10.0038L20.799 9.75L20.0729 10.5L20.799 11.25L19.7865 10.9962L19.5 12L19.2135 10.9962L18.201 11.25L18.9271 10.5L18.201 9.75L19.2135 10.0038L19.5 9Z" stroke="#E3A327" stroke-width="2" stroke-linecap="round" stroke-linejoin="round"/>
</svg>
