<svg width="20" height="20" viewBox="0 0 20 20" fill="none" xmlns="http://www.w3.org/2000/svg">
<g clip-path="url(#clip0_87_711)">
<path d="M2.17578 7.80078L3.75 9.375H5.625L7.5 11.25V13.75L8.75 15V17.5H11.25V15.625L13.75 13.125V10H8.75L7.5 8.75V7.5H10.625V6.25L9.375 5V4.375L10.625 3.125V1.89844C10.418 1.88281 10.2109 1.875 10 1.875C6.27344 1.875 3.13672 4.38281 2.17578 7.80078ZM18.125 10C18.125 8.55859 17.75 7.20703 17.0938 6.03125L15.625 7.5V10.625H18.1016C18.1172 10.418 18.125 10.2109 18.125 10ZM0 10C0 7.34784 1.05357 4.8043 2.92893 2.92893C4.8043 1.05357 7.34784 0 10 0C12.6522 0 15.1957 1.05357 17.0711 2.92893C18.9464 4.8043 20 7.34784 20 10C20 12.6522 18.9464 15.1957 17.0711 17.0711C15.1957 18.9464 12.6522 20 10 20C7.34784 20 4.8043 18.9464 2.92893 17.0711C1.05357 15.1957 0 12.6522 0 10Z" fill="#E3A327"/>
</g>
<defs>
<clipPath id="clip0_87_711">
<rect width="20" height="20" fill="white"/>
</clipPath>
</defs>
</svg>
