<svg width="20" height="23" viewBox="0 0 20 23" fill="none" xmlns="http://www.w3.org/2000/svg">
<path d="M2.85714 1.4375C1.28125 1.4375 0 2.72676 0 4.3125V18.6875C0 20.2732 1.28125 21.5625 2.85714 21.5625H17.1429C18.7188 21.5625 20 20.2732 20 18.6875V4.3125C20 2.72676 18.7188 1.4375 17.1429 1.4375H2.85714ZM10 5.75C10.5938 5.75 11.0714 6.23066 11.0714 6.82812V11.8594C11.0714 12.4568 10.5938 12.9375 10 12.9375C9.40625 12.9375 8.92857 12.4568 8.92857 11.8594V6.82812C8.92857 6.23066 9.40625 5.75 10 5.75ZM8.57143 15.8125C8.57143 15.4313 8.72194 15.0656 8.98985 14.796C9.25776 14.5265 9.62112 14.375 10 14.375C10.3789 14.375 10.7422 14.5265 11.0102 14.796C11.2781 15.0656 11.4286 15.4313 11.4286 15.8125C11.4286 16.1937 11.2781 16.5594 11.0102 16.829C10.7422 17.0985 10.3789 17.25 10 17.25C9.62112 17.25 9.25776 17.0985 8.98985 16.829C8.72194 16.5594 8.57143 16.1937 8.57143 15.8125Z" fill="#E3A327"/>
</svg>
