<svg width="25" height="25" viewBox="0 0 25 25" fill="none" xmlns="http://www.w3.org/2000/svg">
<path fill-rule="evenodd" clip-rule="evenodd" d="M14.4999 3.13341C13.9186 3.125 13.2587 3.125 12.5 3.125C9.58786 3.125 8.1318 3.125 6.98323 3.60075C5.4518 4.23509 4.23509 5.4518 3.60075 6.98323C3.125 8.1318 3.125 9.58786 3.125 12.5V15.625C3.125 18.5713 3.125 20.0444 4.04029 20.9597C4.95558 21.875 6.42872 21.875 9.375 21.875H12.5C15.4121 21.875 16.8682 21.875 18.0168 21.3992C19.5482 20.7649 20.7649 19.5482 21.3992 18.0168C21.875 16.8682 21.875 15.4121 21.875 12.5C21.875 11.7413 21.875 11.0814 21.8666 10.5001C21.3277 11.0162 20.5967 11.3333 19.7917 11.3333C18.1348 11.3333 16.7917 9.99019 16.7917 8.33333V8.20833H16.6667C15.0098 8.20833 13.6667 6.86519 13.6667 5.20833C13.6667 4.40326 13.9838 3.67225 14.4999 3.13341ZM9.375 9.41631C8.82272 9.41631 8.375 9.86403 8.375 10.4163C8.375 10.9686 8.82272 11.4163 9.375 11.4163H15.625C16.1773 11.4163 16.625 10.9686 16.625 10.4163C16.625 9.86403 16.1773 9.41631 15.625 9.41631H9.375ZM9.375 13.583C8.82272 13.583 8.375 14.0307 8.375 14.583C8.375 15.1353 8.82272 15.583 9.375 15.583H12.5C13.0523 15.583 13.5 15.1353 13.5 14.583C13.5 14.0307 13.0523 13.583 12.5 13.583H9.375Z" fill="#01B0BC"/>
<path d="M19.7917 8.3335L19.7917 2.0835M16.6667 5.2085H22.9167" stroke="#01B0BC" stroke-width="2" stroke-linecap="round" stroke-linejoin="round"/>
</svg>
