<svg width="25" height="25" viewBox="0 0 25 25" fill="none" xmlns="http://www.w3.org/2000/svg">
<path fill-rule="evenodd" clip-rule="evenodd" d="M2.08325 21.875L2.08325 7.125C2.08325 5.23938 2.08325 4.29657 2.66904 3.71079C3.25482 3.125 4.19763 3.125 6.08325 3.125L16.6666 3.125C17.4626 3.125 18.1077 3.125 18.6462 3.14596C16.366 3.36574 14.5833 5.28718 14.5833 7.625V11.4587L14.4803 21.8407L11.4583 20.8333L8.33325 21.875L5.20825 20.8333L2.08325 21.875ZM21.9583 11.4583H16.5833V7.625C16.5833 6.24429 17.7025 5.125 19.0833 5.125H19.4583C20.839 5.125 21.9583 6.24429 21.9583 7.625V11.4583ZM4.20825 7.29167C4.20825 6.73938 4.65597 6.29167 5.20825 6.29167H11.4583C12.0105 6.29167 12.4583 6.73938 12.4583 7.29167C12.4583 7.84395 12.0105 8.29167 11.4583 8.29167H5.20825C4.65597 8.29167 4.20825 7.84395 4.20825 7.29167ZM4.20825 11.4583C4.20825 10.906 4.65597 10.4583 5.20825 10.4583H7.29159C7.84387 10.4583 8.29159 10.906 8.29159 11.4583C8.29159 12.0106 7.84387 12.4583 7.29159 12.4583H5.20825C4.65597 12.4583 4.20825 12.0106 4.20825 11.4583ZM4.20825 15.625C4.20825 15.0727 4.65597 14.625 5.20825 14.625H9.37492C9.9272 14.625 10.3749 15.0727 10.3749 15.625C10.3749 16.1773 9.9272 16.625 9.37492 16.625H5.20825C4.65597 16.625 4.20825 16.1773 4.20825 15.625Z" fill="#A30909"/>
</svg>
